<svg id="Layer_1" data-name="Layer 1" xmlns="http://www.w3.org/2000/svg" viewBox="0 0 1904.96 455.93"><defs><style>.cls-1{fill:#253f8f;}.cls-2{isolation:isolate;}.cls-3{fill:#666766;}</style></defs><title>ENIGMACAMP-LOGO-Dark</title><g id="Layer_1-2" data-name="Layer 1"><g id="Design-02"><path class="cls-1" d="M324.25,347.31l14.05-14.05c14-14,32.95-20.63,52.73-20.63a69.69,69.69,0,0,0,56.74-28.09c18.63-24.36,18.63-59.32,0-83.68A69.71,69.71,0,0,0,391,172.78c-19.78.28-38.69-6.59-52.73-20.64l-14.05-14c-14-14-20.63-33-20.63-52.73a70.11,70.11,0,1,0-69.35,69.07C254,154.15,273,161,287,175.07l13.75,13.76c14.05,14,21.21,33.53,21.21,53.59V243c0,20.06-6.88,39.26-21.21,53.59l-13.18,13.18C273.53,323.81,254,331,234,331h-.57c-20.06,0-39.26-6.88-53.59-21.21L166.06,296c-14-14.05-20.63-33-20.63-52.73a69.91,69.91,0,1,0-69.07,69.06c19.77-.28,38.69,6.59,52.73,20.64l14.33,14.33c14,14,20.63,32.95,20.63,52.73a69.75,69.75,0,0,0,28.09,56.74c24.36,18.63,59.32,18.63,83.68,0A69.72,69.72,0,0,0,303.91,400C303.62,380.26,310.21,361.06,324.25,347.31Z" transform="translate(-5.66 -14.82)"/><g id="Enigmacamp"><g class="cls-2"><path d="M613,313.42H501.31V164.24H613v27.28H529.23v34.31H610V252H529.23v33.67H613Z" transform="translate(-5.66 -14.82)"/><path d="M737.21,164h28.13V313.42H747.87v.21l-78.42-100.8V313.42H641.32V164.24h22.8l73.09,92.49Z" transform="translate(-5.66 -14.82)"/><path d="M791.34,313.42V164.24h27.92V313.42Z" transform="translate(-5.66 -14.82)"/><path d="M956.5,200.68c-10-9.59-24.93-14.91-37.93-14.91-32,0-51.36,24.29-51.36,55,0,24.5,14.28,49.86,51.36,49.86,11.72,0,21.95-2.55,33.67-11.93V252.26H914.09V227.11H978V290c-14.7,16.84-33.24,26.86-59.45,26.86-56.05,0-78.85-36.87-78.85-76.08,0-42,26.21-80.77,78.85-80.77a78.77,78.77,0,0,1,55.4,22.8Z" transform="translate(-5.66 -14.82)"/><path d="M1131,205.37l-48.59,64.79h-5.54l-47.52-65V313.63h-28.13V164.46h32.39l46.67,64.14L1127,164.46h32.18V313.63H1131Z" transform="translate(-5.66 -14.82)"/><path d="M1291.5,285.29h-78l-12.78,28.13h-30.48l66.92-149.18h30.68l66.92,149.18h-30.69Zm-39-89.72-27.7,63.5h55.41Z" transform="translate(-5.66 -14.82)"/></g><g class="cls-2"><path class="cls-1" d="M1454.17,292.75a76.84,76.84,0,0,1-54.35,22.37c-50.29,0-76.5-35.16-76.71-75.44-.43-39.85,25.57-77.14,76.71-77.14a76.84,76.84,0,0,1,54.35,22.37l-7.89,6.82a65.3,65.3,0,0,0-46.46-19c-43.47,0-65.85,30.68-65.63,66.49.42,34.95,22.59,65.21,65.63,65.21a66.68,66.68,0,0,0,46.67-19Z" transform="translate(-5.66 -14.82)"/><path class="cls-1" d="M1593.11,313.42l-16.41-36.66h-89.08l-16.2,36.66h-12.36L1526,164.24h12.57l66.92,149.18Zm-20.89-47.31-40.06-90.79-40.07,90.79Z" transform="translate(-5.66 -14.82)"/><path class="cls-1" d="M1752.5,180.87l-57.11,87.37h-3.84L1634,180.87V313.42h-11.51V164.24h13.64l57.11,86.95,56.47-86.95h14.07V313.42h-11.3Z" transform="translate(-5.66 -14.82)"/><path class="cls-1" d="M1808.12,261.84v51.58h-11.51V164.24H1862c64.79,0,64.79,97.6,0,97.6Zm0-86.94v76.5H1862c49.66,0,49.66-76.5,0-76.5Z" transform="translate(-5.66 -14.82)"/></g></g><g class="cls-2"><path class="cls-3" d="M1348.47,428.39V370.21h4.4v58.18Z" transform="translate(-5.66 -14.82)"/><path class="cls-3" d="M1384.87,374.29h-21v-4h46.55v4h-21v54.1h-4.49Z" transform="translate(-5.66 -14.82)"/><path class="cls-3" d="M1484.77,386.09c0,6-3.66,10.64-9.48,12.46,7.32,2,11.47,7.9,11.47,14.63,0,12-11.13,15.21-21.11,15.21H1441.8V370.21h23.85C1475.46,370.21,1484.77,375,1484.77,386.09Zm-38.48,10.47h19.94c7,0,14.3-2.16,14.3-10.47,0-8.48-7.65-12-14.88-12h-19.36Zm0,27.51h19.36c7.32,0,16.71-1.74,16.71-11-.08-9.06-8.31-12.3-16.13-12.3h-19.94Z" transform="translate(-5.66 -14.82)"/><path class="cls-3" d="M1554.58,399.39c-.08,15.29-9.81,30-29.34,30s-29.34-14.79-29.34-30.17c0-15.63,9.72-29.92,29.34-29.92S1554.66,383.68,1554.58,399.39Zm-54.28-.09c.09,13.13,8.4,25.93,24.94,25.93s25-12.8,25-25.93c0-13.46-8.31-25.85-25-25.85S1500.22,385.59,1500.3,399.3Z" transform="translate(-5.66 -14.82)"/><path class="cls-3" d="M1621.4,399.39c-.09,15.29-9.81,30-29.34,30s-29.34-14.79-29.34-30.17c0-15.63,9.72-29.92,29.34-29.92S1621.48,383.68,1621.4,399.39Zm-54.28-.09c.09,13.13,8.4,25.93,24.94,25.93s25-12.8,25-25.93c0-13.46-8.31-25.85-25-25.85S1567,385.59,1567.12,399.3Z" transform="translate(-5.66 -14.82)"/><path class="cls-3" d="M1645.16,374.29h-21v-4h46.54v4h-21v54.1h-4.49Z" transform="translate(-5.66 -14.82)"/><path class="cls-3" d="M1727.19,420.33a30,30,0,0,1-21.19,8.73c-19.62,0-29.84-13.72-29.92-29.42s10-30.09,29.92-30.09a30,30,0,0,1,21.19,8.72l-3.07,2.66a25.5,25.5,0,0,0-18.12-7.39c-17,0-25.68,12-25.6,25.93.17,13.63,8.81,25.43,25.6,25.43a26,26,0,0,0,18.2-7.4Z" transform="translate(-5.66 -14.82)"/><path class="cls-3" d="M1781.38,428.39,1775,414.1h-34.74l-6.32,14.29h-4.82l26.1-58.18h4.9l26.1,58.18Zm-8.15-18.45-15.62-35.41L1742,409.94Z" transform="translate(-5.66 -14.82)"/><path class="cls-3" d="M1843.54,376.7l-22.27,34.07h-1.5l-22.44-34.07v51.69h-4.49V370.21h5.32l22.28,33.91,22-33.91H1848v58.18h-4.41Z" transform="translate(-5.66 -14.82)"/><path class="cls-3" d="M1865.23,408.28v20.11h-4.49V370.21h25.52c25.27,0,25.27,38.07,0,38.07Zm0-33.91v29.84h21c19.36,0,19.36-29.84,0-29.84Z" transform="translate(-5.66 -14.82)"/></g></g></g></svg>