<?xml version="1.0" encoding="UTF-8"?><svg id="Layer_1" xmlns="http://www.w3.org/2000/svg" viewBox="0 0 502.32 544.94"><defs><style>.cls-1{fill:#fff;}.cls-2{fill:#e82c30;}</style></defs><polygon class="cls-2" points="332.26 0 0 43.45 45.52 329.36 115.44 544.94 465.91 445.22 502.32 134.07 332.26 0"/><polygon class="cls-1" points="201.51 328.54 103.86 349.64 122.48 404.85 229.23 379.02 201.51 328.54"/><g><polygon class="cls-1" points="69.1 203.16 87.31 254.89 299.99 211.44 266.06 168.82 69.1 203.16"/><polygon class="cls-1" points="299.99 211.44 194.8 232.93 223.85 281.37 338.05 256.54 299.99 211.44"/></g><polygon class="cls-1" points="463.01 140.89 371.57 69.93 322.75 31.45 34.76 68.69 50.91 114.97 264.04 85.03 340.12 162.61 463.01 140.89"/></svg>